PathFileType	4	(X/Y/Z)	C:/Users/beibeiliu/ov580/test_trc\sequence.30_training_dense_right.trc
DataRate	CameraRate	NumFrames	NumMarkers	Units	OrigDataRate	OrigDataStartFrame	OrigNumFrames
120	120	17	19	mm	120	1	69
Frame#	Time	ThumbCMC			ThumbMCP			ThumbIP			ThumbTip			IndexMCP			IndexPIP			IndexTip			MiddleMCP			MiddlePIP			MiddleTip			RingMCP			RingPIP			RingTip			PinkyMCP			PinkyPIP			PinkyTip			BackHand1			BackHand2			BackHand3	
		X0	Y0	Z0	X1	Y1	Z1	X2	Y2	Z2	X3	Y3	Z3	X4	Y4	Z4	X5	Y5	Z5	X6	Y6	Z6	X7	Y7	Z7	X8	Y8	Z8	X9	Y9	Z9	X10	Y10	Z10	X11	Y11	Z11	X12	Y12	Z12	X13	Y13	Z13	X14	Y14	Z14	X15	Y15	Z15	X16	Y16	Z16	X17	Y17	Z17	X18	Y18	Z18	
0	0	139.157	21.3496	109.737	133.006	-0.0225184	79.1839	141.553	-6.73082	51.5955	158.983	-8.20417	33.2534	157.575	41.1063	43.0071	156.254	16.3465	22.2177	154.487	-7.98213	15.1154	182.179	35.5693	42.338	176.383	11.9398	23.086	172.531	-22.0376	20.5659	197.443	26.2667	47.9901	192.841	0.768511	32.1563	181.997	-29.2696	32.9187	211.248	19.0554	59.9141	206.844	-3.64965	44.817	195.531	-27.7423	39.7034	196.068	47.5363	101.49	188.933	44.6791	133.284	162.011	51.8831	113.676	
1	0.00833333	125.427	14.7332	107.424	121.651	-9.05358	88.3412	128.307	-20.4897	58.8316	142.886	-27.5172	41.2785	142.724	24.5237	43.3288	138.664	-1.79263	24.5671	141.843	-32.1163	27.0953	163.394	20.1845	42.5964	158.91	-11.1279	26.2287	154.417	-43.0839	32.5277	180.01	10.344	45.9966	181.295	-17.1171	39.0916	162.057	-43.8033	50.8248	196.55	5.61664	61.4179	189.592	-21.8623	50.4878	168.247	-40.8204	57.5726	182.687	38.7408	97.917	177.627	40.0876	129.489	149.533	46.6785	107.605	
2	0.0166667	112.04	14.461	116.027	107.328	-11.8814	93.2323	108.265	-27.7126	67.5769	126.515	-34.827	51.3594	127.217	13.9692	44.6357	118.886	-10.2165	30.7807	121.109	-41.1149	36.4418	146.125	4.40075	39.9706	138.387	-24.1091	31.7623	131.805	-55.6615	45.4431	165.798	-3.27639	48.4307	157.152	-29.5596	44.7163	141.338	-50.6716	66.288	179.981	-7.86996	60.0679	169.879	-34.0254	58.3787	147.892	-46.7778	71.8548	172.967	31.153	93.454	172.815	36.7892	123.401	142.402	43.3865	106.956	
3	0.025	104.233	23.7651	116.221	89.4707	-1.31047	101.062	87.8451	-18.9135	73.7734	99.5408	-33.3299	56.1956	112.45	18.0247	48.5473	97.5062	-10.3218	36.7626	94.5451	-38.0727	44.3825	133.762	1.63091	43.3399	117.121	-27.1974	37.5121	104.839	-51.9705	53.7557	145.495	-9.98634	48.374	129.81	-37.2803	51.2234	112.567	-46.5898	75.6341	161.02	-17.01	62.2787	144.199	-38.6767	63.2592	118.521	-41.7378	86.3557	164.769	26.9126	91.1147	167.961	30.5581	124.162	137.022	44.3487	102.776	
4	0.0333333	105.51	40.7774	115.979	84.6243	19.7742	103.479	72.9227	4.6182	79.6309	76.2699	-13.3445	60.2805	108.027	27.1418	47.3866	86.5082	11.1064	39.0332	73.2069	-15.5178	46.9058	121.79	12.9472	46.7046	95.6785	-12.044	41.7816	76.23	-29.742	56.2946	132.575	-4.64966	53.5854	104.576	-24.737	54.4924	85.5747	-30.8172	79.7602	144.566	-19.4322	65.945	114.655	-32.5921	68.8947	96.2873	-24.7138	92.3048	163.48	21.6157	93.2266	172.247	24.6343	122.229	147.849	45.1846	105.818	
5	0.0416667	117.039	55.6369	114.192	91.4418	42.4734	102.888	74.8567	34.0616	84.3292	66.5541	20.5089	64.0363	112.513	45.0637	49.0617	87.0682	30.7163	40.3355	59.4744	20.4728	46.5399	120.77	20.9432	47.2016	90.6895	8.90546	41.7886	63.0179	2.46504	55.1893	120.773	3.68742	52.307	93.4333	-7.95511	54.0437	71.0096	-2.86142	74.0093	126.285	-15.9777	65.6994	100.187	-15.5116	68.2316	78.2794	-1.89251	92.822	163.324	12.4858	90.4474	170.347	19.1132	118.967	157.056	45.0306	100.784	
6	0.05	134.298	63.3849	113.691	104.051	65.8991	101.295	84.1696	63.0579	78.271	71.7651	53.7821	60.9514	126.189	54.2737	47.7769	97.1085	56.7348	38.8333	70.196	47.4595	43.2467	124.409	33.1663	45.7121	93.3697	32.7308	40.8539	62.7369	34.5245	52.004	118.502	10.1128	52.1249	89.3905	12.2207	52.1695	65.9012	22.666	67.1529	120.099	-4.32775	66.5652	89.7093	1.81281	68.6148	71.4453	22.8482	84.2335	163.299	11.6549	92.9777	170.151	14.8458	121.588	166.904	43.1323	101.146	
7	0.0583333	153.351	64.3436	115.549	125.855	73.8668	96.3893	108.624	76.3604	73.453	94.6805	70.0338	52.1863	145.64	54.0959	44.6616	116.393	61.1953	35.1903	88.5847	67.6533	36.6896	133.323	32.1632	44.4298	105.917	43.4129	37.3567	73.8051	54.8653	44.9753	121.378	14.1015	51.709	95.1685	24.6242	47.4551	76.5456	43.9796	52.6569	119.396	-0.763249	66.5804	96.0451	12.0256	60.7443	72.9041	34.2083	65.7755	163.082	3.19126	90.7609	169.894	4.63762	125.704	178.874	33.8258	104.706	
8	0.0666667	168.195	50.9541	110.357	147.28	67.934	92.0051	134.644	70.4537	68.7157	121.524	68.087	46.5659	163.65	37.2018	44.4987	143.309	51.5306	30.0301	119.329	61.5974	27.9479	148.718	19.3027	45.2988	123.652	38.2224	32.8703	103.91	55.2383	33.0192	136.518	7.28088	53.2892	114.63	22.3965	42.3841	93.267	46.4319	39.6514	122.601	-4.66237	66.0412	106.416	13.2525	55.1336	86.5608	30.8179	51.7547	161.957	-12.5743	98.6967	165.532	-8.60715	129.077	183.986	14.9521	110.848	
9	0.075	182.245	40.2994	117.264	163.265	53.9741	89.5417	155.102	55.9155	64.4254	145.17	50.4054	39.9315	182.05	14.3935	49.0396	170.312	30.4824	31.8693	143.869	46.5564	23.6119	168.144	3.49875	46.2469	147.034	20.7136	30.3418	129.562	40.8814	24.5174	150.649	-9.27021	56.3446	134.892	6.93703	39.7937	118.711	30.3354	30.0021	132.765	-18.0635	68.0698	121.844	-1.67694	52.208	109.814	17.1156	38.2088	169.286	-19.984	108.465	166.987	-18.2259	135.654	191.139	-2.25261	120.49	
10	0.0833333	190.301	26.5718	119.27	176.391	40.2022	87.7309	169.801	40.6693	61.3184	163.47	30.3927	38.7653	204.283	-1.7801	60.1079	189.52	12.8232	33.9877	166.975	21.4975	23.3117	186.754	-15.0133	54.5495	170.715	-3.31577	33.9754	151.196	19.1014	22.8044	168.289	-25.8003	58.5861	155.86	-13.086	40.1437	141.779	8.28264	26.2226	150.727	-33.8555	71.7671	143.252	-20.1601	52.2928	131.369	-0.6051	32.9386	180.611	-31.0356	118.736	176.134	-25.9409	147.387	199.467	-9.21855	129.647	
11	0.0916667	195.963	26.7391	126.971	184.897	28.8066	94.1024	183.91	26.9347	61.3369	182.516	18.9997	38.3733	224.788	-2.98714	67.0713	210.807	2.62182	41.2484	188.962	11.7461	25.0284	213.885	-19.8792	65.8868	196.985	-12.3821	38.1111	177.357	5.65029	22.6578	196.478	-35.0953	65.9952	182.703	-26.8346	44.4805	167.102	-6.16252	26.7026	182.343	-41.8813	74.0028	169.659	-33.2835	52.3076	156.207	-18.0094	35.433	199.963	-37.8119	122.301	190.235	-28.4926	152.079	215.915	-6.93664	134.386	
12	0.1	198.786	33.0511	129.105	190.272	31.0188	95.7076	191.388	28.7667	68.7579	196.042	20.3227	45.5604	241.099	10.501	72.4752	227.986	11.0097	47.9044	211.111	15.2043	30.6275	235.06	-8.88106	68.2872	216.686	-8.05407	42.6101	194.905	1.70847	26.7058	223.402	-27.6811	71.2604	207.386	-25.1096	46.3155	191.163	-8.7004	29.6478	210.257	-42.2754	79.1861	199.993	-34.2706	57.2511	183.805	-20.5197	39.1059	222.483	-28.2757	130.874	205.472	-23.143	155.771	225.416	4.33591	145.321	
13	0.108333	197.245	36.8074	129.744	188.392	38.6969	96.1414	194.095	35.8464	70.1023	198.751	30.0908	48.364	243.657	27.451	80.5223	233.934	27.8599	52.0839	213.027	27.6929	29.9157	243.907	5.3297	76.7861	230.833	7.37273	48.3855	202.64	11.5522	27.3809	236.841	-13.751	73.5463	225.553	-7.04721	51.4261	204.562	-2.52917	33.736	227.266	-30.9779	84.8179	215.689	-24.1894	57.6227	201.603	-13.6784	41.7662	229.877	-12.7708	135.849	214.319	-13.3553	157.094	226.463	19.3902	148.881	
14	0.116667	190.155	48.1908	129.81	179.23	51.1179	97.0316	186.831	48.4844	70.0903	196.746	42.4149	44.4239	239.373	49.3469	78.0289	227.267	46.6844	51.5539	210.08	45.3922	32.8495	241.382	29.4288	75.8714	229.645	25.6039	49.3286	201.652	27.6456	28.6973	238.595	4.14345	74.8345	224.592	8.3771	47.5483	200.943	15.1654	31.6494	231.327	-12.3895	83.9636	221.794	-12.2208	57.9785	201.097	0.491141	37.9756	231.356	-1.16347	133.55	214.361	0.0823768	158.317	223.041	31.9993	145.132	
15	0.125	177.213	58.4468	128.434	167.091	56.9778	96.3705	170.993	58.8586	68.8919	180.326	53.9506	46.6071	224.039	67.6382	76.8035	210.894	65.901	49.5798	193.8	60.0345	30.9272	229.376	46.5764	70.7574	213.974	46.6379	44.2783	190.407	42.4325	27.4753	230.385	27.3356	71.2402	218.991	21.2675	47.0342	192.413	24.8458	29.0347	227.203	4.43702	79.2836	215.851	5.06561	54.9494	195.174	12.5274	35.8294	227.103	13.2542	131.591	212.637	8.94522	153.712	210.921	44.253	145.534	
16	0.133333	160.589	57.9547	127.193	147.846	58.515	93.5508	154.823	58.7099	65.274	161.805	55.9413	42.4351	199.984	79.4428	71.1653	186.819	76.0147	46.4766	169.867	59.3927	27.2205	210.755	61.5236	69.0957	195.373	56.2889	42.3631	172.72	41.4509	25.5452	216.01	40.7523	70.8388	200.752	35.2092	42.0828	175.327	31.5142	26.3795	218.29	17.8478	76.8729	202.377	18.5137	50.3978	181.033	18.9656	32.9609	217.416	30.802	127.854	204.653	21.1073	153.087	195.792	54.2185	142.071	
